HIERARCHY
ROOT Hips
{
	OFFSET 0.000000 0.000000 0.000000
	CHANNELS 6 Xposition Yposition Zposition Xrotation Yrotation Zrotation
	JOINT Chest
	{
		OFFSET 0.000000 0.009282 11.569106
		CHANNELS 3 Xrotation Yrotation Zrotation
		JOINT Chest2
		{
			OFFSET 0.000000 -0.016863 9.269641
			CHANNELS 3 Xrotation Yrotation Zrotation
			JOINT Chest3
			{
				OFFSET 0.000000 0.000000 8.374491
				CHANNELS 3 Xrotation Yrotation Zrotation
				JOINT Chest4
				{
					OFFSET 0.000000 0.000000 8.374493
					CHANNELS 3 Xrotation Yrotation Zrotation
					JOINT Neck
					{
						OFFSET 0.000000 -0.000001 12.152554
						CHANNELS 3 Xrotation Yrotation Zrotation
						JOINT Head
						{
							OFFSET 0.000000 -0.040100 7.802319
							CHANNELS 3 Xrotation Yrotation Zrotation
							End Site
							{
								OFFSET 0.000000 -0.020946 14.853096
							}
						}
					}
					JOINT RightCollar
					{
						OFFSET -2.894404 0.000000 6.791374
						CHANNELS 3 Xrotation Yrotation Zrotation
						JOINT RightShoulder
						{
							OFFSET -13.574684 0.000000 0.000000
							CHANNELS 3 Xrotation Yrotation Zrotation
							JOINT RightElbow
							{
								OFFSET -23.923903 0.000000 0.000000
								CHANNELS 3 Xrotation Yrotation Zrotation
								JOINT RightWrist
								{
									OFFSET -19.846718 -0.012765 0.000000
									CHANNELS 3 Xrotation Yrotation Zrotation
									End Site
									{
										OFFSET -14.973145 0.000000 0.000000
									}
								}
							}
						}
					}
					JOINT LeftCollar
					{
						OFFSET 2.894404 0.000000 6.791374
						CHANNELS 3 Xrotation Yrotation Zrotation
						JOINT LeftShoulder
						{
							OFFSET 13.574684 0.000000 0.000000
							CHANNELS 3 Xrotation Yrotation Zrotation
							JOINT LeftElbow
							{
								OFFSET 23.923903 0.000000 0.000000
								CHANNELS 3 Xrotation Yrotation Zrotation
								JOINT LeftWrist
								{
									OFFSET 19.846718 -0.012765 0.000000
									CHANNELS 3 Xrotation Yrotation Zrotation
									End Site
									{
										OFFSET 14.973145 0.000000 0.000000
									}
								}
							}
						}
					}
				}
			}
		}
	}
	JOINT RightHip
	{
		OFFSET -9.469263 -0.004642 0.045487
		CHANNELS 3 Xrotation Yrotation Zrotation
		JOINT RightKnee
		{
			OFFSET 0.000000 -0.002666 -40.478676
			CHANNELS 3 Xrotation Yrotation Zrotation
			JOINT RightAnkle
			{
				OFFSET 0.000000 -0.049110 -35.224068
				CHANNELS 3 Xrotation Yrotation Zrotation
				JOINT RightToe
				{
					OFFSET 0.000000 -12.539530 -6.151390
					CHANNELS 3 Xrotation Yrotation Zrotation
					End Site
					{
						OFFSET 0.000000 -5.044995 -1.291870
					}
				}
			}
		}
	}
	JOINT LeftHip
	{
		OFFSET 9.469263 -0.004642 0.045487
		CHANNELS 3 Xrotation Yrotation Zrotation
		JOINT LeftKnee
		{
			OFFSET 0.000000 -0.002666 -40.478676
			CHANNELS 3 Xrotation Yrotation Zrotation
			JOINT LeftAnkle
			{
				OFFSET 0.000000 -0.049110 -35.224068
				CHANNELS 3 Xrotation Yrotation Zrotation
				JOINT LeftToe
				{
					OFFSET 0.000000 -12.539530 -6.151390
					CHANNELS 3 Xrotation Yrotation Zrotation
					End Site
					{
						OFFSET 0.000000 -5.044995 -1.291870
					}
				}
			}
		}
	}
}
MOTION
Frames: 12
Frame Time: 0.016667
-3.983747 14.362312 83.062668 3.240913 9.612205 -113.566047 7.291140 -0.183208 0.452757 3.237610 -0.093481 0.193772 3.237612 -0.093481 0.193773 2.428177 -0.071140 0.144835 16.580102 -0.309475 -1.290978 -5.389317 -0.107308 -2.461928 -8.800776 -7.761006 -3.677099 31.300616 -38.812243 7.768180 58.730126 5.864058 64.858288 -56.688108 33.481324 93.850638 -7.051663 9.086509 -2.308004 23.512563 41.073097 -4.701600 59.126093 6.779686 -58.821186 -33.728167 -31.998480 -92.429863 11.752783 -0.415852 -11.390448 3.577250 -0.283544 -1.257247 -6.262814 -0.650769 -1.504071 0.060235 0.067656 0.036906 9.538855 4.813117 0.831305 3.442446 -0.247516 3.600035 -2.200450 -1.355095 7.368766 -0.007043 0.013651 -0.033209 
-3.983747 14.362312 83.062668 3.240913 9.612205 -113.566047 7.291140 -0.183208 0.452757 3.237610 -0.093481 0.193772 3.237612 -0.093481 0.193773 2.428177 -0.071140 0.144835 16.580102 -0.309475 -1.290978 -5.389317 -0.107308 -2.461928 -8.800776 -7.761006 -3.677099 31.300616 -38.812243 7.768180 58.730126 5.864058 64.858288 -56.688108 33.481324 93.850638 -7.051663 9.086509 -2.308004 23.512563 41.073097 -4.701600 59.126093 6.779686 -58.821186 -33.728167 -31.998480 -92.429863 11.752783 -0.415852 -11.390448 3.577250 -0.283544 -1.257247 -6.262814 -0.650769 -1.504071 0.060235 0.067656 0.036906 9.538855 4.813117 0.831305 3.442446 -0.247516 3.600035 -2.200450 -1.355095 7.368766 -0.007043 0.013651 -0.033209 
-3.979113 14.348270 83.066673 3.196019 9.564368 -113.467658 7.287650 -0.188309 0.434605 3.235669 -0.095228 0.185888 3.235669 -0.095228 0.185882 2.426721 -0.072407 0.138912 16.574390 -0.321686 -1.287427 -5.400196 -0.130704 -2.459799 -8.818249 -7.757778 -3.673678 31.300749 -38.801765 7.771763 58.735406 5.842086 64.879660 -56.693053 33.477875 93.848343 -7.056235 9.069360 -2.310859 23.473369 41.102432 -4.694114 59.148905 6.799821 -58.813072 -33.708059 -32.003148 -92.402515 11.721575 -0.393528 -11.486582 3.536614 -0.300634 -1.311177 -6.279142 -0.741028 -1.465602 0.074573 0.112215 0.035110 9.471806 4.843981 0.810884 3.431414 -0.301542 3.482840 -2.149065 -1.330346 7.379604 -0.017669 0.013585 -0.030391 
-3.977795 14.337102 83.068924 3.141394 9.497545 -113.351040 7.271950 -0.194836 0.411917 3.227440 -0.098620 0.176744 3.227441 -0.098620 0.176738 2.420550 -0.074901 0.132043 16.574871 -0.335687 -1.287013 -5.399569 -0.156371 -2.463979 -8.852796 -7.756149 -3.668003 31.304584 -38.783447 7.760393 58.744989 5.828769 64.896926 -56.683982 33.477318 93.826848 -7.058854 9.052798 -2.312895 23.489862 41.129907 -4.718190 59.156473 6.815955 -58.809466 -33.698528 -32.002892 -92.383950 11.690627 -0.372514 -11.626008 3.465078 -0.322426 -1.414253 -6.298762 -0.852199 -1.353932 0.097757 0.159780 0.031544 9.386473 4.888504 0.782209 3.413811 -0.380537 3.342916 -2.092383 -1.292589 7.412821 -0.025827 0.009948 -0.027218 
-3.975508 14.323907 83.070274 3.076521 9.410992 -113.217578 7.241962 -0.200050 0.386929 3.213380 -0.102265 0.167362 3.213381 -0.102265 0.167370 2.410006 -0.077582 0.124991 16.581061 -0.355465 -1.292185 -5.388388 -0.190697 -2.480393 -8.879042 -7.755436 -3.672655 31.305632 -38.760644 7.748355 58.758724 5.826691 64.915416 -56.660715 33.474679 93.791830 -7.075363 9.043508 -2.310923 23.552400 41.142123 -4.760390 59.171261 6.817267 -58.804309 -33.713216 -31.999890 -92.372079 11.633619 -0.336669 -11.797501 3.414664 -0.363790 -1.552573 -6.346421 -0.992471 -1.217346 0.128386 0.221439 0.025150 9.272966 4.929769 0.731491 3.405849 -0.457650 3.202685 -2.037667 -1.248004 7.480504 -0.032459 0.002292 -0.022395 
-3.971784 14.305280 83.073135 3.015619 9.319719 -113.077286 7.211060 -0.208565 0.361214 3.199725 -0.107770 0.157238 3.199723 -0.107770 0.157238 2.399765 -0.081654 0.117367 16.589025 -0.379247 -1.299387 -5.373975 -0.231630 -2.501920 -8.916640 -7.758246 -3.675613 31.316093 -38.725100 7.734993 58.782520 5.819921 64.939670 -56.652188 33.466021 93.775478 -7.100287 9.044602 -2.308466 23.615649 41.136204 -4.796113 59.199749 6.829214 -58.806406 -33.737009 -32.006082 -92.362688 11.557173 -0.296411 -11.977035 3.398942 -0.409450 -1.679026 -6.412812 -1.154944 -1.101199 0.155351 0.287387 0.017034 9.147024 4.964993 0.674091 3.413213 -0.531393 3.078357 -1.984911 -1.200780 7.515568 -0.040336 -0.008256 -0.016406 
-3.967446 14.285829 83.078285 2.961102 9.228181 -112.939282 7.186206 -0.219233 0.339350 3.188861 -0.114116 0.148521 3.188861 -0.114116 0.148523 2.391619 -0.086364 0.110801 16.597459 -0.408199 -1.309681 -5.358757 -0.280901 -2.530880 -8.950591 -7.764851 -3.679256 31.330320 -38.676831 7.734907 58.808154 5.796954 64.974729 -56.670431 33.456790 93.778019 -7.113739 9.043169 -2.309452 23.640374 41.131894 -4.814532 59.231223 6.859141 -58.813482 -33.738843 -32.011171 -92.343393 11.469850 -0.257988 -12.144888 3.410874 -0.457022 -1.777740 -6.491000 -1.314804 -1.016975 0.174818 0.341858 0.012072 9.018969 4.997122 0.625695 3.427629 -0.611254 2.962062 -1.927992 -1.144861 7.525727 -0.052131 -0.019946 -0.011064 
-3.962694 14.263566 83.085152 2.907819 9.142329 -112.817124 7.168759 -0.226520 0.326874 3.181491 -0.120094 0.143653 3.181491 -0.120094 0.143656 2.386092 -0.090821 0.107115 16.608257 -0.440799 -1.321996 -5.339208 -0.336159 -2.564824 -8.967793 -7.769420 -3.676940 31.347160 -38.630635 7.745493 58.819192 5.765741 65.009659 -56.680342 33.447873 93.786079 -7.123683 9.040238 -2.310854 23.642573 41.144646 -4.822521 59.259732 6.890382 -58.815080 -33.727006 -32.016122 -92.329152 11.348361 -0.205121 -12.270474 3.503075 -0.503593 -1.893091 -6.604145 -1.482562 -0.955839 0.186199 0.389004 0.006710 8.894716 5.038496 0.587663 3.441393 -0.696502 2.859998 -1.855579 -1.087155 7.534197 -0.072672 -0.028996 -0.006311 
-3.958754 14.231404 83.093719 2.857250 9.068697 -112.711611 7.158836 -0.230788 0.323093 3.177942 -0.125970 0.141699 3.177942 -0.125970 0.141699 2.383427 -0.095217 0.105622 16.627851 -0.472933 -1.334830 -5.303326 -0.390554 -2.599498 -8.958180 -7.761697 -3.669166 31.367832 -38.593902 7.772275 58.823597 5.747176 65.040114 -56.699866 33.448502 93.799698 -7.125950 9.042352 -2.310163 23.639712 41.173658 -4.827420 59.267464 6.896646 -58.804978 -33.716413 -32.017454 -92.322267 11.185143 -0.122830 -12.388260 3.704631 -0.562979 -2.006135 -6.754850 -1.655131 -0.874470 0.183797 0.430079 0.000654 8.781902 5.090049 0.575116 3.457069 -0.790770 2.764662 -1.767591 -1.027946 7.466257 -0.101860 -0.033398 -0.002142 
-3.953836 14.191296 83.104019 2.810797 9.013856 -112.613454 7.160778 -0.232990 0.323311 3.180520 -0.130824 0.139916 3.180520 -0.130825 0.139914 2.385359 -0.098850 0.104258 16.655363 -0.505593 -1.347324 -5.252788 -0.446201 -2.633673 -8.930356 -7.748043 -3.654880 31.381714 -38.561062 7.810273 58.821029 5.729209 65.069047 -56.714291 33.456063 93.814383 -7.124802 9.045809 -2.308947 23.634116 41.213860 -4.830595 59.251543 6.885460 -58.780977 -33.700925 -32.017564 -92.316120 10.990314 -0.016965 -12.510284 4.007608 -0.625763 -2.065380 -6.941478 -1.819222 -0.825993 0.170113 0.456715 -0.006316 8.681760 5.152454 0.595711 3.468692 -0.879119 2.661805 -1.650346 -0.982365 7.421808 -0.141950 -0.034995 0.005521 
-3.949194 14.139024 83.114960 2.767225 8.975019 -112.516691 7.173740 -0.228870 0.326475 3.187743 -0.134092 0.138312 3.187744 -0.134093 0.138307 2.390777 -0.101294 0.103037 16.691676 -0.540916 -1.361096 -5.185959 -0.506430 -2.671095 -8.917901 -7.737252 -3.643172 31.411084 -38.533947 7.854034 58.804432 5.722052 65.093957 -56.720555 33.466441 93.819082 -7.109368 9.034929 -2.315860 23.605316 41.266978 -4.825861 59.229563 6.867391 -58.759141 -33.678065 -32.021047 -92.304761 10.762157 0.110813 -12.630637 4.408619 -0.688870 -2.093767 -7.163522 -1.971656 -0.794048 0.148497 0.465783 -0.013409 8.593477 5.220785 0.617978 3.484816 -0.964487 2.563230 -1.518544 -0.941239 7.376466 -0.185349 -0.035971 0.013463 
-3.948102 14.074232 83.125114 2.726594 8.947968 -112.423070 7.192941 -0.218664 0.335361 3.197053 -0.134794 0.139180 3.197055 -0.134794 0.139183 2.397758 -0.101826 0.103687 16.744475 -0.581479 -1.378400 -5.088631 -0.575324 -2.716657 -8.916422 -7.735587 -3.642974 31.425892 -38.518121 7.882670 58.784269 5.727724 65.107849 -56.706396 33.477257 93.815093 -7.086888 9.011366 -2.333553 23.568322 41.312744 -4.831691 59.214202 6.857786 -58.737550 -33.659227 -32.024851 -92.298962 10.502819 0.259567 -12.746187 4.902256 -0.751098 -2.145741 -7.424869 -2.121996 -0.745841 0.124215 0.461235 -0.020993 8.514192 5.302047 0.614411 3.508472 -1.057380 2.495180 -1.387403 -0.897586 7.258358 -0.221452 -0.041165 0.021173 
